<svg data-v-0dd9719b="" version="1.0" xmlns="http://www.w3.org/2000/svg" xmlns:xlink="http://www.w3.org/1999/xlink" width="100%" height="100%" viewBox="0 0 340.000000 250.000000" preserveAspectRatio="xMidYMid meet" color-interpolation-filters="sRGB" style="margin: auto;"> <rect data-v-0dd9719b="" x="0" y="0" width="100%" height="100%" fill="#fff" fill-opacity="1" class="background"></rect> <rect data-v-0dd9719b="" x="0" y="0" width="100%" height="100%" fill="url(#watermark)" fill-opacity="1" class="watermarklayer"></rect> <g data-v-0dd9719b="" fill="#333" class="icon-text-wrapper icon-svg-group iconsvg" transform="translate(48.98500061035156,97.76375007629395)"><g class="iconsvg-imagesvg" transform="translate(0,8.869651794433594)"><g><rect fill="#333" fill-opacity="0" stroke-width="2" x="0" y="0" width="60" height="36.7331945634872" class="image-rect"></rect> <svg x="0" y="0" width="60" height="36.7331945634872" filtersec="colorsb1443204100" class="image-svg-svg primary" style="overflow: visible;"><svg xmlns="http://www.w3.org/2000/svg" viewBox="0 0 163.33999633789062 100"><title>资源 214</title><path fill="#333" d="M54.45 95.42L0 46.59V0l54.45 48.84v46.58z"></path><path fill="#f8cb46" d="M108.9 97.75L54.45 48.92V2.33l54.45 48.83v46.59z"></path><path fill="#eb6f2e" d="M163.34 100L108.9 51.16V4.58l54.44 48.83V100z"></path></svg></svg> <!----></g></g> <g transform="translate(67,0)"><g data-gra="path-name" fill-rule="" class="tp-name iconsvg-namesvg" transform="translate(0,0)"><g transform="scale(1)"><g><path d="M32.01 3.1L32.01 3.1Q28.66 3.1 28.66 1.44L28.66 1.44Q28.66 1.09 28.87 0.92L28.87 0.92Q29.79 0.22 31.58 0.22L31.58 0.22 31.8 0.22Q34.33 0.22 34.48 0.09 34.63-0.04 34.63-19.98L34.63-19.98Q34.63-21.28 34.37-21.28L34.37-21.28 10.82-21.28Q10.55-21.28 10.55-19.98L10.55-19.98 10.55 1.35Q10.55 3.1 7.76 3.1L7.76 3.1Q4.97 3.1 4.97 1.35L4.97 1.35 4.97-21.94Q4.97-22.77 5.84-23.64 6.72-24.51 8.59-24.51L8.59-24.51 19.02-24.51Q19.06-25.12 19.19-26.13L19.19-26.13Q19.41-27.74 19.54-29L19.54-29 5.58-29Q2.92-29 2.92-30.66L2.92-30.66Q2.92-32.28 5.58-32.28L5.58-32.28 19.8-32.28Q19.98-33.15 19.98-34.37L19.98-34.37Q20.11-36.16 22.55-36.16L22.55-36.16Q25.82-36.16 25.82-34.41L25.82-34.41 25.56-32.28 39.6-32.28Q42.26-32.28 42.26-30.66L42.26-30.66Q42.26-29 39.6-29L39.6-29 25.12-29Q24.86-27.09 24.38-24.51L24.38-24.51 36.68-24.51Q38.56-24.51 39.43-23.64 40.3-22.77 40.3-21.94L40.3-21.94 40.3-1Q40.3 0.31 39.89 1.07 39.47 1.83 38.08 2.4L38.08 2.4Q36.46 3.01 32.01 3.1ZM22.46 2.14L22.46 2.14Q19.76 2.14 19.76 0.48L19.76 0.48 19.76-5.02 13.48-5.02Q11.08-5.02 11.08-6.41L11.08-6.41Q11.08-7.76 13.48-7.76L13.48-7.76 19.76-7.76 19.76-12.04 14.35-12.04Q11.99-12.04 11.99-13.39L11.99-13.39Q11.99-14.7 14.35-14.7L14.35-14.7 16.05-14.7Q15.44-17.27 14.31-19.54L14.31-19.54Q14.48-19.54 15.18-19.71 15.88-19.89 16.44-19.89L16.44-19.89Q17.49-19.89 18.45-19.3 19.41-18.71 19.8-17.84L19.8-17.84Q20.11-17.23 20.11-16.79L20.11-16.79Q20.11-15.79 18.54-15.35L18.54-15.35 17.18-14.7 24.12-14.7Q24.9-16.57 25.69-18.75L25.69-18.75Q26.13-20.24 27.83-20.24L27.83-20.24Q28.39-20.24 29.09-20.06L29.09-20.06Q30.75-19.67 30.75-18.84L30.75-18.84Q30.75-18.67 30.66-18.45L30.66-18.45Q30.05-17.14 29-14.7L29-14.7 30.97-14.7Q33.32-14.7 33.32-13.39L33.32-13.39Q33.32-12.04 30.97-12.04L30.97-12.04 25.17-12.04 25.17-7.76 31.75-7.76Q34.15-7.76 34.15-6.41L34.15-6.41Q34.15-5.02 31.75-5.02L31.75-5.02 25.17-5.02 25.17 0.48Q25.17 2.14 22.46 2.14ZM61.58 3.14L61.58 3.14Q58.23 3.14 57.53 1.26L57.53 1.26 57.48 1Q57.48 0.52 58.01 0.17L58.01 0.17Q59.1-0.52 61.06-0.52L61.06-0.52 61.28-0.52Q64.59-0.52 64.72-0.63 64.86-0.74 64.86-16.62L64.86-16.62 51.38-16.62Q48.67-16.62 48.67-18.27L48.67-18.27Q48.67-19.93 51.38-19.93L51.38-19.93 84.35-19.93Q87.06-19.93 87.06-18.27L87.06-18.27Q87.06-16.62 84.35-16.62L84.35-16.62 70.61-16.62 70.61-1.57Q70.61 0.04 70.22 0.79L70.22 0.79Q69.7 1.79 68.04 2.4L68.04 2.4Q66.12 3.05 61.58 3.14ZM83.31-23.07L83.31-23.07Q80.43-23.07 80.43-24.9L80.43-24.9 80.43-27.17Q80.43-28.48 80.16-28.48L80.16-28.48 55.7-28.48Q55.43-28.48 55.43-27.17L55.43-27.17 55.43-24.82Q55.43-23.07 52.64-23.07L52.64-23.07Q49.85-23.07 49.85-24.82L49.85-24.82 49.85-29.35Q49.85-30.18 50.72-31.05 51.6-31.93 53.47-31.93L53.47-31.93 64.86-31.93 64.86-34.54Q64.86-36.38 67.73-36.38L67.73-36.38Q70.61-36.38 70.61-34.54L70.61-34.54 70.61-31.93 82.56-31.93Q84.44-31.93 85.31-31.05 86.18-30.18 86.18-29.35L86.18-29.35 86.18-24.9Q86.18-23.07 83.31-23.07ZM117.54 2.57L117.54 2.57 109.78 2.57Q105.59 2.57 104.2 1.42 102.8 0.26 102.8-2.27L102.8-2.27 102.8-9.25Q102.8-10.95 105.59-10.95L105.59-10.95Q108.34-10.95 108.34-9.25L108.34-9.25 108.34-2.31Q108.34-0.92 108.67-0.72 108.99-0.52 110.17-0.52L110.17-0.52 117.19-0.52Q117.8-0.52 118.2-1.44L118.2-1.44Q118.37-2.97 118.94-3.71L118.94-3.71Q119.68-4.88 120.94-4.88L120.94-4.88Q121.6-4.88 122.34-4.58L122.34-4.58Q123.65-4.06 123.65-2.36L123.65-2.36 123.61-1.7Q123.21 0.52 122.04 1.44L122.04 1.44Q120.6 2.57 117.54 2.57ZM95.56 1.13L95.56 1.13Q94.56 1.13 93.47 0.39L93.47 0.39Q92.64-0.13 92.64-0.7L92.64-0.7Q92.64-1.09 93.07-1.53L93.07-1.53Q95.21-4.14 96.48-8.33L96.48-8.33Q96.87-10.03 98.61-10.03L98.61-10.03Q99.27-10.03 100.18-9.77L100.18-9.77Q101.84-9.25 101.84-8.42L101.84-8.42 101.8-8.2Q101.23-6.06 100.23-3.75L100.23-3.75Q98.09 1.13 95.56 1.13ZM129.1 0.22L129.1 0.22Q127.4 0.22 126.88-1.22L126.88-1.22Q125.22-4.75 121.77-8.9L121.77-8.9Q121.51-9.2 121.51-9.51L121.51-9.51Q121.51-10.03 122.49-10.58 123.47-11.12 124.39-11.12L124.39-11.12Q125.57-11.12 126.57-10.08L126.57-10.08Q130.5-5.84 132.46-1.79L132.46-1.79Q132.59-1.53 132.59-1.4L132.59-1.4Q132.42-0.96 131.28-0.37 130.15 0.22 129.1 0.22ZM114.49-8.81L114.49-8.81Q113.14-8.81 112.18-9.9L112.18-9.9Q109.52-12.21 107.64-13.43L107.64-13.43Q106.94-13.87 106.94-14.31L106.94-14.31Q106.94-14.65 107.34-15.05L107.34-15.05Q108.34-15.92 109.47-15.92L109.47-15.92Q110.35-15.92 111.26-15.4L111.26-15.4Q114.8-13.43 117.06-11.21L117.06-11.21Q117.5-10.82 117.5-10.64L117.5-10.64Q117.5-10.47 116.85-9.86L116.85-9.86Q115.75-8.81 114.49-8.81ZM127.05-16.79L127.05-16.79 98.13-16.79Q95.43-16.79 95.43-18.45L95.43-18.45Q95.43-20.11 98.13-20.11L98.13-20.11 109.52-20.11 109.52-27.17 95.34-27.17Q92.64-27.17 92.64-28.83L92.64-28.83Q92.64-30.49 95.34-30.49L95.34-30.49 109.52-30.49 109.52-34.59Q109.52-36.33 112.31-36.33L112.31-36.33Q115.1-36.33 115.1-34.59L115.1-34.59 115.1-30.49 129.67-30.49Q132.37-30.49 132.37-28.83L132.37-28.83Q132.37-27.17 129.67-27.17L129.67-27.17 115.1-27.17 115.1-20.11 127.05-20.11Q129.76-20.11 129.76-18.45L129.76-18.45Q129.76-16.79 127.05-16.79ZM147.72 2.88L147.72 2.88 147.29 2.88Q144.5 2.88 144.02 1.22L144.02 1.22 143.97 0.87Q143.97-0.39 146.9-0.39L146.9-0.39 147.24-0.39Q147.51-0.39 147.72-0.92L147.72-0.92 147.72-11.3 143.93-11.3Q143.01 1.57 140.53 2.53L140.53 2.53Q140.22 2.66 139.83 2.66L139.83 2.66Q139 2.66 137.87 2.03 136.73 1.4 136.73 0.96L136.73 0.96Q136.73 0.65 136.91 0.26L136.91 0.26Q139.05-6.28 139.05-19.45L139.05-19.45 139.05-32.19Q139.05-33.02 139.92-33.89 140.79-34.76 142.67-34.76L142.67-34.76 149.34-34.76Q151.21-34.76 152.09-33.89 152.96-33.02 152.96-32.19L152.96-32.19 152.96-21.46Q154.14-23.38 155.66-32.01L155.66-32.01Q155.92-33.8 157.89-33.8L157.89-33.8Q158.41-33.8 159.02-33.67L159.02-33.67Q161.07-33.37 161.07-32.19L161.07-32.19Q161.07-31.62 159.98-26.91L159.98-26.91 162.64-26.91 162.64-34.15Q162.64-35.85 165.39-35.85L165.39-35.85Q168.14-35.85 168.14-34.15L168.14-34.15 168.14-26.91 174.33-26.91Q177.03-26.91 177.03-25.25L177.03-25.25Q177.03-23.6 174.33-23.6L174.33-23.6 168.14-23.6 168.14-14.39 173.68-14.39Q176.34-14.39 176.34-12.78L176.34-12.78Q176.34-11.17 173.68-11.17L173.68-11.17 168.14-11.17 168.14-1.31 175.25-1.31Q177.95-1.31 177.95 0.35L177.95 0.35Q177.95 2.01 175.25 2.01L175.25 2.01 155.36 2.01Q152.65 2.01 152.65 0.35L152.65 0.35Q152.65-1.31 155.36-1.31L155.36-1.31 162.64-1.31 162.64-11.17 157.15-11.17Q154.49-11.17 154.49-12.78L154.49-12.78Q154.49-14.39 157.15-14.39L157.15-14.39 162.64-14.39 162.64-23.6 158.89-23.6Q158.37-21.94 157.58-20.06L157.58-20.06Q156.97-18.84 155.23-18.41L155.23-18.41Q154.75-18.27 154.27-18.27L154.27-18.27Q153.05-18.27 151.87-19.06L151.87-19.06Q150.82-19.58 150.6-19.58L150.6-19.58Q150.6-19.41 152.96-17.84L152.96-17.84 152.96-1.35Q152.96 1.09 151.52 1.96L151.52 1.96Q150.12 2.7 147.72 2.88ZM144.1-14.52L147.72-14.52 147.72-21.59 144.19-21.59Q144.19-16.49 144.1-14.52L144.1-14.52ZM144.19-24.77L147.72-24.77 147.72-30.27Q147.72-31.58 147.46-31.58L147.46-31.58 144.45-31.58Q144.19-31.58 144.19-30.27L144.19-30.27 144.19-24.77Z" transform="translate(-2.9200000762939453, 36.380001068115234)"></path></g> <!----> <!----> <!----> <!----> <!----> <!----> <!----></g></g> <g data-gra="path-slogan" fill-rule="" class="tp-slogan iconsvg-slogansvg" fill="#333" transform="translate(28.30999755859375,45.52000045776367)"><!----> <!----> <g transform="scale(1, 1)"><g transform="scale(1)"><path d="M2.30-8.58L6.61-1.64L6.61-8.58L7.73-8.58L7.73 0L6.42 0L2.06-6.94L2.02-6.94L2.02 0L0.89 0L0.89-8.58L2.30-8.58ZM15.19 0L14.34-2.48L10.88-2.48L9.98 0L8.81 0L12.05-8.58L13.36-8.58L16.45 0L15.19 0ZM12.61-7.31L11.25-3.52L13.92-3.52L12.66-7.31L12.61-7.31ZM18.89-8.58L23.20-1.64L23.20-8.58L24.33-8.58L24.33 0L23.02 0L18.66-6.94L18.61-6.94L18.61 0L17.48 0L17.48-8.58L18.89-8.58ZM27.52-8.58L31.83-1.64L31.83-8.58L32.95-8.58L32.95 0L31.64 0L27.28-6.94L27.23-6.94L27.23 0L26.11 0L26.11-8.58L27.52-8.58ZM34.92-8.58L36.09-8.58L36.09 0L34.92 0L34.92-8.58ZM39.47-8.58L43.78-1.64L43.78-8.58L44.91-8.58L44.91 0L43.59 0L39.23-6.94L39.19-6.94L39.19 0L38.06 0L38.06-8.58L39.47-8.58ZM53.11-3.61L50.48-3.61L50.48-4.59L54.23-4.59L54.23 0L53.48 0L53.20-1.08Q52.22 0.09 50.39 0.14L50.39 0.14Q48.66 0.14 47.72-0.75L47.72-0.75Q46.31-2.06 46.36-4.36L46.36-4.36Q46.69-8.63 50.44-8.81L50.44-8.81Q53.63-8.63 54.09-6L54.09-6L52.97-6Q52.50-7.78 50.39-7.83L50.39-7.83Q47.72-7.64 47.58-4.31L47.58-4.31Q47.58-0.75 50.44-0.75L50.44-0.75Q51.47-0.75 52.22-1.31L52.22-1.31Q53.16-2.06 53.11-3.61L53.11-3.61ZM60.19-1.03L65.48-1.03L65.48 0L58.73 0L58.73-0.94L63.98-7.59L59.11-7.59L59.11-8.58L65.48-8.58L65.48-7.59L60.19-1.03ZM67.78-5.06L72.28-5.06L72.28-8.58L73.45-8.58L73.45 0L72.28 0L72.28-3.98L67.78-3.98L67.78 0L66.61 0L66.61-8.58L67.78-8.58L67.78-5.06ZM75.42-8.58L76.59-8.58L76.59 0L75.42 0L75.42-8.58ZM84.84-6.09L84.84-6.09L83.77-6.09Q83.67-7.73 81.61-7.83L81.61-7.83Q79.69-7.78 79.69-6.33L79.69-6.33Q79.69-5.39 80.72-5.25L80.72-5.25L83.16-4.69Q85.08-4.22 85.08-2.34L85.08-2.34Q85.03 0.05 81.70 0.14L81.70 0.14Q79.88 0.14 79.13-0.61L79.13-0.61Q78.19-1.31 78.23-2.77L78.23-2.77L79.36-2.77Q79.41-0.80 81.70-0.75L81.70-0.75Q83.95-0.80 84-2.20L84-2.20Q84.19-3.38 82.13-3.75L82.13-3.75L80.34-4.13Q78.52-4.64 78.52-6.19L78.52-6.19Q78.66-8.72 81.52-8.81L81.52-8.81Q84.75-8.81 84.84-6.09ZM87.70-5.06L92.20-5.06L92.20-8.58L93.38-8.58L93.38 0L92.20 0L92.20-3.98L87.70-3.98L87.70 0L86.53 0L86.53-8.58L87.70-8.58L87.70-5.06ZM96.47-1.03L101.63-1.03L101.63 0L95.30 0L95.30-8.58L101.53-8.58L101.53-7.59L96.47-7.59L96.47-4.92L101.16-4.92L101.16-3.89L96.47-3.89L96.47-1.03ZM104.53-8.58L108.84-1.64L108.84-8.58L109.97-8.58L109.97 0L108.66 0L104.30-6.94L104.25-6.94L104.25 0L103.13 0L103.13-8.58L104.53-8.58ZM118.17-3.61L115.55-3.61L115.55-4.59L119.30-4.59L119.30 0L118.55 0L118.27-1.08Q117.28 0.09 115.45 0.14L115.45 0.14Q113.72 0.14 112.78-0.75L112.78-0.75Q111.38-2.06 111.42-4.36L111.42-4.36Q111.75-8.63 115.50-8.81L115.50-8.81Q118.69-8.63 119.16-6L119.16-6L118.03-6Q117.56-7.78 115.45-7.83L115.45-7.83Q112.78-7.64 112.64-4.31L112.64-4.31Q112.64-0.75 115.50-0.75L115.50-0.75Q116.53-0.75 117.28-1.31L117.28-1.31Q118.22-2.06 118.17-3.61L118.17-3.61Z" transform="translate(-0.890625, 8.8125)"></path></g></g></g></g></g><defs v-gra="od"></defs></svg>